<?xml version="1.0" standalone="no"?>
<!DOCTYPE svg PUBLIC "-//W3C//DTD SVG 20010904//EN"
 "http://www.w3.org/TR/2001/REC-SVG-20010904/DTD/svg10.dtd">
<svg version="1.0" xmlns="http://www.w3.org/2000/svg"
 width="1999.000000pt" height="1850.000000pt" viewBox="0 0 1999.000000 1850.000000"
 preserveAspectRatio="xMidYMid meet">

<g transform="translate(0.000000,1850.000000) scale(0.100000,-0.100000)"
fill="#000000" stroke="none">
<path d="M345 18178 c-3 -7 -6 -1455 -7 -3217 l-3 -3204 1500 7 c825 3 2159 8
2965 11 806 3 1489 8 1519 11 l53 6 -5 44 c-2 24 0 47 5 50 5 3 20 23 34 45
13 22 36 45 49 51 14 6 25 17 25 25 0 7 5 13 10 13 6 0 10 16 10 35 0 24 9 45
26 65 15 16 32 40 38 52 6 13 26 32 44 43 22 14 31 26 28 38 -3 11 -2 16 1 13
3 -3 19 6 35 19 16 14 34 25 39 25 5 0 9 7 9 15 0 9 9 15 25 15 23 0 25 4 25
40 l0 40 54 0 c33 0 56 -5 58 -12 2 -6 10 -8 16 -4 13 8 16 27 5 25 -5 -1 -46
0 -93 2 -69 3 -55 4 70 9 l155 6 -145 4 -145 4 150 6 c83 4 396 8 697 9 l546
1 59 67 c32 36 81 92 108 123 28 30 75 85 105 120 30 35 75 87 100 115 25 28
68 77 95 110 28 32 64 74 81 92 18 18 34 40 38 48 3 9 14 19 25 23 11 4 20 10
20 15 1 17 76 97 88 93 8 -3 10 1 6 11 -5 12 -3 14 7 8 8 -5 11 -4 6 3 -8 13
51 82 67 79 6 -1 11 5 12 14 0 8 7 22 15 31 18 18 98 110 164 187 25 30 53 56
62 57 21 3 24 7 29 34 5 26 24 42 39 33 5 -4 7 1 3 11 -4 10 -3 15 3 11 6 -3
10 2 10 11 0 16 1 16 15 -2 14 -19 14 -19 15 3 0 12 -6 24 -12 26 -7 3 0 4 16
2 26 -2 30 -7 34 -36 2 -19 6 -36 8 -38 8 -9 4 61 -6 78 -16 31 6 79 72 153
l63 71 6 -39 c4 -21 12 -115 19 -209 7 -93 25 -318 41 -499 22 -245 26 -332
18 -342 -6 -8 -7 -14 -2 -14 5 0 17 -99 27 -220 l19 -220 812 0 813 0 97 118
c54 64 104 121 112 125 7 4 13 13 13 18 0 8 134 170 187 227 7 7 29 33 49 57
20 25 40 43 44 40 4 -3 7 3 6 13 -1 11 5 16 18 14 11 -2 15 1 11 7 -3 6 1 21
9 33 l16 22 1 -24 c0 -23 1 -23 8 -5 5 11 6 25 3 30 -3 7 -1 7 6 0 6 -5 12
-19 15 -30 2 -11 3 -7 2 10 -1 16 4 44 11 62 12 26 18 31 41 29 16 -2 47 -4
71 -5 36 -1 42 -4 42 -22 0 -24 37 -58 63 -59 10 0 17 -8 17 -21 0 -24 37 -58
63 -59 9 0 17 -6 17 -12 1 -7 15 -22 33 -33 18 -11 36 -29 41 -40 5 -11 23
-29 40 -40 17 -11 35 -29 40 -40 5 -11 23 -29 40 -40 17 -11 35 -29 40 -40 5
-11 23 -29 40 -40 17 -11 35 -30 41 -43 5 -12 13 -22 17 -22 3 0 20 -11 36
-25 16 -13 32 -22 35 -19 3 3 3 -3 0 -15 -3 -12 -1 -21 5 -21 21 0 72 -52 72
-73 0 -13 12 -30 30 -42 24 -16 30 -27 30 -57 0 -21 5 -38 10 -38 6 0 10 8 10
17 0 14 2 15 13 4 10 -11 10 -14 0 -18 -15 -5 -18 -33 -4 -33 20 0 71 -53 71
-73 0 -13 12 -30 30 -42 24 -16 30 -27 30 -57 0 -21 5 -38 10 -38 6 0 10 -7
10 -15 0 -8 4 -15 9 -15 5 0 23 -12 40 -26 27 -23 31 -32 31 -77 1 -47 4 -54
33 -72 29 -18 31 -24 28 -67 -2 -46 -1 -47 31 -57 18 -5 26 -10 18 -10 -13 -1
-13 -2 0 -11 11 -7 -7 -10 -60 -12 l-75 -2 75 -6 c102 -8 6643 -1 6652 8 6 7
27 6350 20 6365 -2 4 -4352 7 -9668 7 -7723 0 -9666 -3 -9669 -12z m16050
-1578 c552 -72 909 -189 1247 -408 87 -56 119 -88 56 -56 -114 59 -429 150
-667 194 -534 98 -1198 71 -1712 -69 -226 -61 -308 -90 -529 -183 -582 -247
-1093 -699 -1339 -1186 -171 -340 -231 -760 -152 -1074 10 -37 14 -65 10 -63
-24 15 -153 270 -168 334 -5 20 -19 72 -31 116 -28 103 -38 315 -20 438 11 77
17 93 49 131 112 137 253 306 581 701 201 242 377 454 390 471 170 211 243
288 297 316 197 100 519 212 768 267 151 33 371 66 531 81 122 11 580 4 689
-10z m-5721 -97 c3 -21 7 -72 8 -113 l3 -75 -577 -5 -578 -5 -201 -240 c-111
-132 -269 -321 -352 -420 -83 -99 -153 -182 -157 -185 -3 -3 -73 -86 -155
-185 -137 -164 -325 -386 -346 -409 -5 -6 -9 100 -9 251 l0 261 38 45 c20 24
116 138 212 252 335 397 476 565 600 714 l125 150 692 0 691 1 6 -37z m3136
30 c0 -5 -41 -56 -90 -115 l-91 -108 -624 0 -624 0 -118 -149 c-65 -81 -181
-228 -258 -326 -77 -98 -183 -233 -236 -299 -52 -67 -147 -186 -210 -266 -63
-80 -162 -205 -219 -277 -68 -85 -106 -127 -107 -115 -2 9 -9 120 -17 246
l-15 229 97 124 c53 69 111 141 127 162 17 21 68 87 115 147 46 60 101 129
121 154 40 47 272 341 399 504 l75 96 838 0 c460 0 837 -3 837 -7z m-7660 -20
c0 -5 -18 -56 -42 -115 l-42 -108 -1165 -1 c-642 -1 -1571 -5 -2066 -8 l-899
-6 -54 -135 c-29 -74 -91 -233 -138 -353 -46 -120 -92 -233 -101 -252 l-17
-35 -152 0 -152 0 75 188 c80 201 170 429 260 662 31 80 61 148 67 152 6 4
753 8 1660 8 907 0 1652 2 1654 5 9 8 1112 6 1112 -2z m1680 -101 l0 -109
-816 -7 c-449 -4 -818 -6 -819 -4 -1 2 -5 54 -8 116 l-7 112 825 0 825 0 0
-108z m8983 -161 c1107 -139 1836 -749 1837 -1536 0 -352 -128 -708 -374
-1035 -277 -369 -735 -695 -1241 -885 -456 -171 -1012 -255 -1489 -226 -767
46 -1356 268 -1741 655 -173 174 -281 351 -345 567 -42 140 -54 240 -48 398
14 345 160 714 407 1021 72 90 239 258 341 344 440 368 1056 622 1691 696 251
29 240 28 529 25 194 -2 310 -9 433 -24z m2587 -37 c0 -2 -7 -4 -15 -4 -8 0
-15 4 -15 10 0 5 7 7 15 4 8 -4 15 -8 15 -10z m-8373 -384 c11 -201 33 -581
49 -845 15 -264 30 -483 33 -487 3 -4 31 25 61 64 30 39 107 137 170 217 105
132 263 332 514 651 88 110 168 211 470 594 l140 176 844 0 844 0 -24 -28
c-12 -15 -44 -52 -69 -82 -26 -30 -114 -136 -196 -235 -82 -99 -261 -315 -398
-480 -137 -165 -314 -379 -394 -475 -79 -96 -165 -200 -191 -230 -51 -60 -327
-392 -649 -780 -112 -135 -243 -292 -291 -350 -115 -137 -259 -311 -445 -535
-82 -100 -192 -232 -243 -293 l-93 -111 -697 -3 c-383 -2 -700 0 -703 5 -3 4
-13 105 -23 225 -9 119 -32 399 -51 622 -18 223 -41 497 -50 610 -9 113 -19
228 -22 257 l-6 52 -101 -118 c-55 -65 -202 -234 -326 -377 -356 -408 -758
-871 -944 -1086 l-171 -198 -700 0 -701 0 -22 493 c-23 497 -27 609 -82 1892
-44 1035 -50 1198 -47 1202 2 1 373 4 825 5 l822 3 0 -853 c0 -562 3 -851 10
-847 5 3 75 83 154 178 79 95 217 259 307 366 90 107 250 296 354 421 105 124
282 336 395 469 113 134 211 252 219 262 13 19 35 19 710 17 l696 -3 22 -365z
m-4547 339 c0 -5 -34 -96 -76 -202 -103 -261 -193 -489 -248 -628 -25 -64 -51
-128 -57 -142 l-12 -26 -704 -3 c-612 -3 -705 -5 -713 -18 -5 -8 -33 -73 -61
-145 -28 -71 -107 -272 -176 -445 -69 -173 -153 -387 -188 -475 -35 -88 -119
-302 -188 -475 -69 -173 -160 -403 -202 -510 -42 -107 -104 -264 -138 -347
l-61 -153 -804 0 c-442 0 -801 3 -799 8 3 4 30 72 62 152 31 80 100 253 152
385 52 132 132 335 178 450 46 116 127 320 180 455 53 135 135 341 181 458 46
116 122 308 169 426 47 118 85 217 85 220 0 3 -317 7 -704 8 l-704 3 45 115
c108 276 250 635 298 755 l51 130 480 5 c994 11 3954 10 3954 -1z m-81 -859
c0 -58 14 -402 30 -765 16 -363 37 -840 46 -1060 8 -220 18 -437 22 -482 l6
-83 -81 0 c-49 0 -84 4 -88 11 -4 6 -8 86 -10 178 -2 91 -15 405 -29 696 -14
292 -27 611 -30 710 -2 99 -10 284 -16 411 l-11 232 56 141 c31 78 56 143 56
145 0 2 8 21 17 42 l17 39 7 -55 c4 -30 7 -102 8 -160z m-3544 -292 c-8 -18
-58 -143 -111 -278 -53 -135 -170 -431 -260 -658 -90 -228 -164 -416 -164
-419 0 -3 -11 -31 -24 -62 -14 -31 -59 -144 -101 -251 -43 -107 -96 -242 -119
-300 l-43 -105 -151 -3 c-101 -2 -152 1 -152 8 0 6 31 88 69 183 38 94 104
260 146 367 41 107 84 215 95 240 11 25 58 144 106 265 47 121 132 337 189
480 57 143 129 325 160 405 31 80 59 148 62 153 2 4 74 7 158 7 l155 0 -15
-32z m6475 -1208 c0 -5 -2 -10 -4 -10 -3 0 -8 5 -11 10 -3 6 -1 10 4 10 6 0
11 -4 11 -10z m2720 -373 c0 -2 -10 -12 -22 -23 l-23 -19 19 23 c18 21 26 27
26 19z m-64 -117 c0 -12 -4 -16 -9 -11 -5 5 -6 14 -3 20 10 15 12 14 12 -9z
m-62 -71 c-3 -5 -9 -7 -14 -4 -5 3 -11 1 -15 -5 -4 -6 -11 -8 -16 -4 -17 10
10 32 31 27 11 -3 17 -9 14 -14z m336 -254 c10 -12 10 -15 -4 -15 -9 0 -16 7
-16 15 0 8 2 15 4 15 2 0 9 -7 16 -15z m80 -80 c10 -12 10 -15 -4 -15 -9 0
-16 7 -16 15 0 8 2 15 4 15 2 0 9 -7 16 -15z m80 -80 c10 -12 10 -15 -4 -15
-9 0 -16 7 -16 15 0 8 2 15 4 15 2 0 9 -7 16 -15z m80 -80 c10 -12 10 -15 -4
-15 -9 0 -16 7 -16 15 0 8 2 15 4 15 2 0 9 -7 16 -15z"/>
<path d="M16012 15219 c-151 -14 -347 -81 -482 -162 -360 -219 -560 -610 -482
-939 52 -213 209 -367 458 -448 214 -69 544 -68 762 1 267 86 494 255 624 465
98 158 138 287 138 444 0 175 -48 291 -173 415 -62 62 -102 92 -162 122 -188
94 -415 128 -683 102z m788 -359 c120 -178 109 -429 -30 -660 -179 -298 -501
-470 -879 -470 -253 0 -434 57 -562 178 -35 33 -61 63 -58 66 3 3 30 1 60 -4
30 -6 134 -11 233 -11 168 0 186 2 305 32 284 72 500 215 666 440 94 127 147
264 167 432 l12 97 24 -22 c13 -13 41 -48 62 -78z"/>
<path d="M9321 13760 c0 -14 4 -34 9 -45 8 -18 9 -18 9 5 0 14 -4 34 -9 45 -8
18 -9 18 -9 -5z"/>
<path d="M9276 13728 c-5 -16 -12 -25 -17 -22 -5 3 -6 10 -3 16 4 7 2 8 -4 4
-15 -9 -4 -36 14 -36 17 0 27 22 21 47 -3 14 -6 12 -11 -9z"/>
<path d="M9301 13714 c0 -11 3 -14 6 -6 3 7 2 16 -1 19 -3 4 -6 -2 -5 -13z"/>
<path d="M9362 13660 c0 -19 2 -27 5 -17 2 9 2 25 0 35 -3 9 -5 1 -5 -18z"/>
<path d="M9177 13646 c-3 -8 0 -20 8 -26 12 -10 13 -8 10 10 -6 29 -11 34 -18
16z"/>
<path d="M9141 13599 c-13 -10 -18 -19 -11 -19 12 0 45 29 39 35 -2 2 -15 -5
-28 -16z"/>
<path d="M9164 13574 c-18 -14 -18 -15 4 -4 12 6 22 13 22 15 0 8 -5 6 -26
-11z"/>
<path d="M9367 13566 c-4 -10 -5 -21 -2 -24 9 -9 17 6 13 25 -3 17 -4 17 -11
-1z"/>
<path d="M9370 13465 c0 -8 4 -15 10 -15 5 0 7 7 4 15 -4 8 -8 15 -10 15 -2 0
-4 -7 -4 -15z"/>
<path d="M9382 13350 c0 -14 2 -19 5 -12 2 6 2 18 0 25 -3 6 -5 1 -5 -13z"/>
<path d="M9392 13240 c0 -14 2 -19 5 -12 2 6 2 18 0 25 -3 6 -5 1 -5 -13z"/>
<path d="M9402 13135 c0 -16 2 -22 5 -12 2 9 2 23 0 30 -3 6 -5 -1 -5 -18z"/>
<path d="M11895 13130 c3 -5 10 -10 16 -10 5 0 9 5 9 10 0 6 -7 10 -16 10 -8
0 -12 -4 -9 -10z"/>
<path d="M8689 13093 c-13 -16 -12 -17 4 -4 9 7 17 15 17 17 0 8 -8 3 -21 -13z"/>
<path d="M9412 13030 c0 -19 2 -27 5 -17 2 9 2 25 0 35 -3 9 -5 1 -5 -18z"/>
<path d="M11975 13050 c3 -5 10 -10 16 -10 5 0 9 5 9 10 0 6 -7 10 -16 10 -8
0 -12 -4 -9 -10z"/>
<path d="M9420 12940 c0 -11 4 -20 9 -20 5 0 7 9 4 20 -3 11 -7 20 -9 20 -2 0
-4 -9 -4 -20z"/>
<path d="M12300 12780 c0 -22 5 -40 10 -40 6 0 10 18 10 40 0 22 -4 40 -10 40
-5 0 -10 -18 -10 -40z"/>
<path d="M12535 12490 c3 -5 10 -10 16 -10 5 0 9 5 9 10 0 6 -7 10 -16 10 -8
0 -12 -4 -9 -10z"/>
<path d="M6800 12330 c0 -5 4 -10 9 -10 6 0 13 5 16 10 3 6 -1 10 -9 10 -9 0
-16 -4 -16 -10z"/>
<path d="M12700 12300 c0 -22 0 -43 -1 -47 0 -4 4 -9 10 -11 7 -2 11 15 11 47
0 28 -4 51 -10 51 -5 0 -10 -18 -10 -40z"/>
<path d="M6480 11900 c0 -22 5 -40 10 -40 6 0 10 18 10 40 0 22 -4 40 -10 40
-5 0 -10 -18 -10 -40z"/>
<path d="M12963 11833 c15 -2 39 -2 55 0 15 2 2 4 -28 4 -30 0 -43 -2 -27 -4z"/>
<path d="M17560 11324 c-302 -56 -464 -128 -609 -273 -115 -115 -165 -221
-184 -391 -3 -19 0 -69 5 -110 24 -196 163 -316 508 -440 228 -81 331 -124
355 -146 35 -33 33 -75 -5 -108 -116 -97 -529 11 -782 207 -21 16 -42 27 -47
25 -5 -1 -89 -88 -187 -193 -97 -104 -188 -201 -201 -214 -13 -13 -22 -29 -20
-35 7 -22 146 -118 237 -165 131 -67 234 -105 380 -142 120 -31 134 -32 360
-35 263 -3 323 4 486 59 231 77 402 218 484 403 39 87 54 177 47 292 -4 76
-11 104 -33 149 -73 144 -206 236 -490 338 -71 26 -173 63 -227 82 -54 20
-109 45 -122 55 -31 24 -32 61 -3 88 94 88 448 17 676 -135 30 -19 57 -35 61
-35 4 0 37 30 72 68 205 215 344 364 347 370 3 10 -140 104 -216 142 -95 47
-220 88 -351 117 -97 21 -148 25 -316 28 -110 2 -211 1 -225 -1z"/>
<path d="M6980 11285 c-250 -37 -531 -178 -710 -356 -233 -233 -352 -503 -354
-799 -2 -240 72 -420 241 -586 285 -280 821 -359 1263 -185 338 133 612 407
730 729 62 170 80 383 46 542 -48 224 -220 437 -446 550 -210 105 -500 145
-770 105z m346 -605 c69 -34 128 -97 152 -164 21 -58 27 -175 12 -248 -23
-123 -111 -259 -214 -333 -227 -162 -543 -102 -624 119 -40 107 -35 208 17
346 47 124 195 269 307 300 123 35 255 27 350 -20z"/>
<path d="M13583 11282 l-742 -2 -72 -223 c-39 -122 -97 -301 -129 -397 -31
-96 -87 -269 -124 -385 -37 -115 -80 -248 -96 -295 -16 -47 -59 -179 -95 -295
-37 -115 -78 -241 -91 -278 -13 -38 -24 -72 -24 -78 0 -5 348 -9 908 -9 l907
0 83 263 c45 144 82 265 82 270 0 4 -250 7 -555 7 -305 0 -555 3 -555 7 0 4
14 51 32 105 l32 98 513 0 513 0 12 28 c6 15 41 122 78 237 l67 210 -513 3
c-283 1 -514 3 -514 5 1 8 58 178 61 181 7 6 497 16 807 16 233 0 304 3 307
13 2 6 40 123 84 260 45 136 81 251 81 255 0 8 -24 8 -1057 4z"/>
<path d="M14872 11273 c-5 -10 -53 -153 -107 -318 -53 -165 -125 -388 -160
-495 -35 -107 -105 -323 -155 -480 -50 -157 -104 -323 -120 -370 -55 -167 -90
-275 -90 -282 0 -10 318 -10 542 -1 l165 6 89 273 89 273 83 3 c46 2 87 1 91
-2 6 -5 25 -52 104 -255 90 -229 107 -275 107 -285 0 -7 130 -10 385 -10 l385
0 -9 23 c-5 12 -63 152 -130 311 -67 160 -122 296 -124 304 -1 10 20 22 63 37
297 101 486 304 529 566 35 213 -16 389 -150 513 -78 73 -171 119 -312 155
-165 43 -291 51 -804 51 -430 0 -463 -1 -471 -17z m921 -553 c118 -41 139
-171 43 -266 -71 -70 -129 -86 -351 -94 -104 -4 -193 -4 -198 0 -4 3 21 91 54
194 l62 188 176 -5 c108 -2 191 -9 214 -17z"/>
<path d="M9367 11273 c-721 -3 -919 -6 -922 -16 -2 -6 -41 -127 -86 -267 -45
-140 -84 -261 -86 -267 -4 -10 61 -13 307 -13 246 0 311 -3 307 -12 -2 -7 -48
-148 -101 -313 -54 -165 -110 -338 -126 -385 -48 -142 -220 -677 -220 -684 0
-3 158 -5 351 -4 l351 3 28 80 c28 81 99 300 230 705 171 530 193 595 199 602
3 4 145 11 316 15 l310 8 83 260 c46 143 84 266 85 274 2 18 105 17 -1026 14z"/>
<path d="M10556 11272 c-7 -11 -54 -153 -176 -532 -56 -173 -128 -396 -160
-495 -32 -99 -104 -322 -160 -495 -56 -173 -110 -340 -121 -371 -10 -31 -19
-59 -19 -63 0 -3 159 -5 353 -4 l352 3 27 80 c15 44 52 159 82 255 31 96 70
219 88 273 l32 97 318 0 c239 0 318 -3 318 -12 0 -10 -49 -164 -178 -563 -22
-66 -37 -122 -33 -125 3 -3 162 -4 353 -2 l347 3 81 252 c45 139 94 290 110
337 16 47 58 180 95 295 37 116 80 248 95 295 55 162 250 769 250 777 0 2
-159 3 -353 3 l-352 0 -44 -137 c-77 -243 -178 -544 -185 -550 -8 -8 -636 -11
-636 -3 0 8 74 240 158 495 33 99 58 183 55 188 -6 10 -691 9 -697 -1z"/>
<path d="M4117 11253 c-8 -14 -64 -183 -237 -723 -55 -173 -112 -346 -125
-385 -13 -38 -56 -171 -95 -295 -40 -124 -85 -263 -100 -310 -16 -47 -40 -120
-54 -162 l-25 -78 354 0 353 0 92 280 91 280 90 0 c54 0 89 -4 89 -10 0 -10
19 -60 105 -280 18 -47 49 -125 68 -175 l35 -90 381 -3 c210 -1 381 -1 381 2
0 2 -59 144 -130 316 -72 172 -129 318 -127 324 3 6 40 24 83 40 269 100 453
293 499 525 23 111 17 271 -13 354 -82 228 -299 350 -689 387 -124 11 -1020
14 -1026 3z m867 -553 c114 -18 166 -79 151 -177 -9 -61 -65 -121 -148 -159
-61 -28 -66 -29 -264 -32 l-201 -4 34 109 c19 59 46 145 60 191 l25 82 142 0
c78 0 169 -4 201 -10z"/>
<path d="M1887 11007 c-43 -133 -121 -375 -173 -537 -52 -162 -108 -333 -124
-380 -15 -47 -61 -186 -100 -310 -40 -124 -83 -256 -96 -295 -13 -38 -33 -99
-43 -134 l-20 -63 702 5 c556 4 719 8 782 20 337 61 554 184 639 360 93 192
67 387 -65 501 -49 41 -152 96 -183 96 -12 1 13 14 54 29 287 107 430 277 430
512 0 192 -101 312 -325 387 -130 44 -269 52 -853 52 l-547 0 -78 -243z m1043
-268 c49 -22 65 -45 65 -94 0 -60 -39 -107 -112 -136 -52 -20 -79 -23 -268
-27 l-211 -4 46 142 45 142 200 -4 c152 -3 208 -8 235 -19z m-207 -678 c103
-32 96 -175 -11 -230 -68 -34 -138 -42 -338 -39 l-192 3 42 130 c23 72 46 137
50 144 11 17 391 10 449 -8z"/>
<path d="M17545 8832 c-467 -1 -1716 -7 -2775 -13 -1059 -6 -1972 -12 -2030
-12 l-105 0 75 -11 75 -11 -85 -6 c-54 -3 -69 -6 -40 -8 51 -2 134 -18 107
-20 -10 0 -15 -6 -12 -12 4 -5 -1 -19 -11 -30 -9 -10 -22 -29 -28 -42 -7 -12
-26 -31 -43 -42 -35 -22 -42 -42 -16 -47 15 -3 15 -4 0 -17 -15 -12 -17 -11
-17 3 0 10 -9 16 -25 16 -22 0 -25 -4 -25 -38 0 -21 -7 -47 -15 -58 -8 -10
-15 -29 -15 -41 0 -14 -6 -23 -16 -23 -16 0 -50 -37 -69 -75 -6 -11 -24 -29
-41 -40 -17 -11 -35 -29 -40 -40 -5 -11 -23 -29 -40 -40 -17 -11 -35 -29 -40
-40 -5 -11 -23 -29 -40 -40 -17 -11 -35 -29 -40 -40 -5 -11 -25 -30 -44 -43
-43 -28 -49 -42 -20 -42 19 0 20 -2 10 -15 -12 -14 -15 -14 -31 1 -22 20 -25
7 -5 -22 13 -18 12 -23 -11 -50 -14 -16 -23 -22 -20 -13 3 9 0 23 -6 30 -10
11 -9 11 5 0 26 -19 34 9 13 46 -15 26 -15 23 1 -24 5 -15 3 -15 -10 1 -21 26
-20 38 4 68 18 24 18 38 -2 38 -4 0 -8 -7 -8 -15 0 -32 -26 -13 -37 28 -7 23
-15 51 -19 61 -5 13 -4 17 4 12 8 -5 10 -2 6 8 -3 9 -10 13 -15 10 -5 -3 -7 1
-4 8 3 7 -6 27 -19 43 l-24 30 -304 3 c-229 2 -313 0 -343 -10 -37 -12 -44
-21 -133 -183 -51 -93 -116 -213 -144 -265 -58 -109 -89 -163 -99 -170 -3 -3
-10 -16 -14 -30 -4 -14 -23 -51 -41 -83 -19 -32 -34 -60 -34 -62 0 -2 -13 -23
-28 -47 -16 -24 -41 -71 -57 -105 -16 -34 -32 -60 -37 -57 -4 3 -8 -4 -8 -15
0 -11 -4 -23 -10 -26 -5 -3 -10 -1 -10 5 0 6 -5 8 -11 4 -8 -5 -8 -8 0 -14 7
-3 9 -14 5 -23 -3 -9 -10 -14 -15 -11 -5 3 -12 -2 -15 -10 -3 -9 -15 -16 -26
-16 -10 0 -17 -4 -13 -10 3 -5 12 -7 19 -4 8 3 17 1 21 -5 3 -7 0 -8 -9 -5
-11 4 -16 0 -16 -11 0 -10 5 -13 12 -9 7 4 8 3 4 -5 -4 -6 -12 -9 -17 -6 -8 6
-14 -16 -10 -38 1 -5 -3 -6 -8 -3 -6 4 -6 18 -1 36 5 18 5 32 -1 35 -5 4 -9
-2 -10 -12 0 -10 -3 -13 -5 -6 -3 7 0 21 6 33 8 15 8 25 1 34 -6 7 -14 201
-21 517 -9 464 -12 506 -28 529 -34 46 -75 51 -352 48 -215 -3 -260 -6 -280
-19 -17 -11 -68 -103 -155 -278 l-130 -263 -8 54 c-4 29 -21 118 -37 198 -16
80 -32 166 -36 193 -8 59 -34 93 -82 107 -49 13 -496 13 -545 -1 -20 -5 -44
-20 -52 -32 -14 -22 -82 -217 -164 -467 -48 -148 -72 -221 -117 -350 -18 -52
-38 -114 -45 -137 -7 -24 -16 -40 -22 -36 -6 3 -7 1 -3 -5 4 -6 -1 -28 -10
-49 -10 -21 -16 -42 -15 -46 1 -5 -4 -26 -10 -47 -11 -36 -13 -38 -26 -22 -13
15 -13 15 -8 -8 5 -24 5 -24 -10 3 -9 16 -19 26 -22 23 -3 -3 0 -13 8 -22 11
-13 11 -18 2 -21 -7 -3 -13 -12 -14 -21 0 -11 -2 -12 -6 -4 -2 6 -9 10 -14 6
-5 -3 -9 5 -9 18 0 18 2 20 10 8 8 -13 10 -12 10 3 0 26 -19 21 -30 -9 -12
-32 -12 -37 -1 -29 5 3 17 -5 25 -17 9 -12 16 -17 16 -10 0 6 6 12 13 12 8 0
14 -7 14 -15 0 -8 -5 -11 -10 -8 -6 4 -8 0 -4 -10 9 -25 -2 -47 -25 -47 -15 0
-18 -5 -13 -20 7 -22 -5 -26 -23 -8 -9 9 -12 8 -12 -7 0 -16 -2 -17 -9 -6 -7
10 -4 19 7 28 12 9 13 12 3 13 -10 0 -12 10 -7 38 3 20 8 63 11 95 3 33 8 64
12 70 4 7 6 23 5 37 -2 21 -1 22 8 10 10 -12 11 -10 6 10 -6 29 -3 48 108 695
47 272 50 306 30 342 -12 23 -28 36 -53 43 -48 13 -466 13 -514 -1 -20 -5 -44
-20 -51 -32 -14 -21 -49 -183 -60 -278 -3 -25 -19 -115 -34 -200 -16 -85 -35
-194 -42 -242 -9 -59 -16 -83 -22 -75 -6 8 -8 0 -4 -24 2 -21 0 -40 -5 -44 -5
-3 -7 -14 -4 -25 4 -10 2 -19 -3 -19 -6 0 -12 5 -14 12 -3 7 -7 5 -11 -6 -5
-11 -3 -15 5 -10 7 5 9 2 5 -9 -3 -9 -2 -17 2 -19 4 -2 5 -23 2 -48 -4 -43 -5
-44 -12 -15 -7 24 -8 20 -5 -17 2 -26 -1 -49 -6 -50 -19 -7 -78 4 -78 14 0 15
-43 47 -62 48 -10 0 -18 5 -18 10 0 6 -18 10 -40 10 -28 0 -40 4 -40 14 0 8
-7 17 -15 20 -13 4 -14 10 -5 26 9 17 6 60 -7 83 -8 14 -32 -27 -33 -55 0 -17
-5 -28 -14 -28 -8 0 -17 -6 -20 -12 -3 -7 -3 -3 0 10 3 13 8 55 10 95 2 39 9
74 15 78 7 4 9 15 5 24 -8 23 5 126 15 119 5 -3 6 1 3 9 -3 8 0 33 6 56 l11
41 139 0 c146 0 179 7 204 45 17 26 76 345 76 411 0 42 -25 72 -68 83 -54 15
-1214 16 -1241 1 -18 -9 -23 -7 -31 12 -10 22 -10 22 -7 -5 4 -22 2 -25 -9
-16 -22 18 -43 4 -36 -23 5 -20 4 -21 -11 -10 -9 8 -13 20 -10 30 6 15 5 15
-10 3 -17 -14 -24 -37 -8 -27 13 9 22 -22 15 -51 -5 -18 -9 -21 -15 -12 -5 8
-3 17 4 21 16 11 -22 41 -41 33 -7 -2 -11 -1 -8 4 3 4 -4 17 -14 29 -11 12
-20 25 -20 29 0 4 -14 22 -30 40 -22 23 -30 42 -30 67 0 35 -14 49 -23 24 -2
-7 -2 -1 0 15 3 15 0 27 -5 27 -6 0 -24 12 -41 26 -25 21 -31 33 -31 65 0 28
-4 39 -15 39 -11 0 -15 11 -15 40 0 36 -2 40 -25 40 -22 0 -25 4 -25 39 0 28
-5 41 -17 46 -17 7 -16 8 2 15 17 8 16 9 -10 11 -16 2 20 6 80 9 152 8 -5095
12 -5531 3 l-351 -6 -6 -537 c-7 -493 -5 -552 13 -735 61 -609 270 -1244 592
-1797 236 -406 487 -729 852 -1094 417 -417 909 -788 1446 -1090 58 -32 128
-71 155 -87 109 -61 570 -284 935 -452 444 -204 468 -215 535 -245 60 -27 110
-50 370 -170 110 -50 214 -97 230 -105 17 -7 129 -58 250 -113 121 -55 394
-179 608 -276 549 -250 1227 -564 1502 -696 868 -416 1401 -724 1724 -993 40
-34 81 -68 91 -75 13 -10 71 -9 291 3 151 8 306 15 344 16 80 2 83 3 210 104
363 288 1135 698 2280 1210 77 34 226 101 330 148 445 199 945 422 1015 452
41 18 203 90 360 160 157 70 314 140 350 155 36 15 97 42 135 60 39 18 113 51
165 75 276 122 897 403 1050 474 1368 639 2371 1515 2952 2581 251 460 414
925 502 1435 48 276 53 397 49 1188 l-3 467 -632 -2 c-348 -2 -1015 -4 -1483
-6z m-11562 -153 c26 -30 16 -32 -18 -4 -20 16 -25 24 -15 25 9 0 24 -9 33
-21z m71 -45 c3 -9 13 -14 20 -11 8 3 20 -1 26 -8 24 -29 -18 -29 -55 -1 -40
31 -42 36 -16 36 10 0 22 -7 25 -16z m102 -82 c-9 -9 -37 8 -31 18 5 8 11 7
21 -1 8 -6 12 -14 10 -17z m117 -309 c-4 -10 -9 -11 -19 -2 -18 15 -18 15 5
15 11 0 17 -5 14 -13z m6157 13 c0 -2 -7 -9 -15 -16 -12 -10 -15 -10 -15 4 0
9 7 16 15 16 8 0 15 -2 15 -4z m90 -27 c-12 -16 -25 -28 -28 -25 -5 6 36 56
45 56 3 0 -5 -14 -17 -31z m-5972 -18 c-7 -9 -13 -17 -14 -18 0 -2 -1 10 -1
27 0 24 3 27 14 19 11 -9 11 -15 1 -28z m-238 -6 c0 -5 -5 -3 -10 5 -5 8 -10
20 -10 25 0 6 5 3 10 -5 5 -8 10 -19 10 -25z m6240 16 c0 -12 -31 -43 -37 -37
-3 2 4 13 14 24 21 24 23 25 23 13z m2630 -50 c63 -16 137 -38 163 -50 l48
-21 -7 -52 c-8 -67 -62 -349 -67 -355 -2 -2 -29 12 -58 32 -149 98 -375 135
-529 86 -170 -53 -290 -196 -312 -369 -11 -94 4 -206 36 -270 26 -50 94 -120
142 -145 125 -63 356 -61 547 5 32 11 61 18 63 15 3 -3 1 -31 -5 -64 -6 -32
-20 -116 -33 -186 -16 -96 -26 -131 -39 -137 -36 -20 -230 -42 -369 -43 -175
-1 -279 18 -395 72 -159 75 -260 176 -336 336 -45 95 -61 182 -61 320 0 192
41 332 144 485 170 256 458 387 823 375 101 -3 156 -11 245 -34z m2830 9 c110
-33 280 -124 280 -150 0 -7 -149 -251 -176 -289 -2 -2 -40 20 -85 49 -91 58
-149 80 -216 80 -122 0 -194 -100 -129 -177 14 -17 89 -63 174 -107 267 -138
338 -212 361 -377 30 -221 -80 -416 -294 -519 -105 -51 -224 -74 -380 -73
-144 1 -238 23 -353 83 -86 45 -207 144 -207 170 0 10 49 81 108 159 l108 141
59 -49 c116 -97 219 -141 328 -141 73 0 141 26 165 63 57 89 5 158 -192 257
-260 129 -339 213 -349 369 -3 40 1 104 7 141 32 179 205 339 416 385 98 21
276 14 375 -15z m-11481 -37 c1 -7 -6 -10 -14 -7 -16 6 -20 35 -8 48 7 7 21
-18 22 -41z m5821 33 c0 -2 -7 -9 -15 -16 -12 -10 -15 -10 -15 4 0 9 7 16 15
16 8 0 15 -2 15 -4z m-9844 -43 c3 -21 21 -117 39 -213 62 -327 86 -455 93
-509 l7 -54 34 84 c19 46 106 229 193 407 l159 322 243 0 244 0 6 -232 c3
-128 10 -440 16 -693 6 -253 11 -489 12 -525 l2 -65 -200 0 -199 0 0 468 c0
257 -3 467 -7 467 -5 0 -8 -6 -8 -12 0 -12 -54 -121 -349 -705 l-112 -223
-133 0 -134 0 -10 48 c-6 26 -24 112 -41 192 -16 80 -44 210 -60 290 -17 80
-43 206 -57 280 -14 74 -27 136 -29 138 -1 2 -8 -27 -14 -64 -7 -37 -26 -111
-42 -163 -17 -53 -46 -148 -66 -211 -19 -63 -63 -203 -97 -310 l-62 -195 -212
-3 c-117 -1 -212 1 -212 5 0 9 425 1294 472 1426 l30 87 244 0 243 0 7 -37z
m1919 10 c-3 -16 -18 -104 -34 -198 -131 -754 -131 -753 -110 -828 24 -89 116
-143 229 -135 71 5 125 38 175 106 75 102 143 315 185 582 11 69 31 186 45
260 13 74 27 159 30 188 l7 52 220 0 220 0 -6 -57 c-4 -32 -20 -132 -36 -223
-16 -91 -45 -262 -65 -380 -48 -287 -92 -470 -131 -550 -116 -231 -350 -350
-687 -350 -291 1 -515 105 -600 280 -49 101 -54 175 -28 377 12 98 35 252 51
343 66 380 92 526 97 543 4 15 23 17 223 17 l220 0 -5 -27z m1745 21 c0 -3 -7
-47 -16 -98 -8 -50 -29 -170 -45 -266 -17 -96 -39 -227 -50 -290 -37 -206 -79
-465 -79 -480 0 -13 36 -15 264 -15 145 0 267 -2 269 -5 3 -3 -9 -84 -27 -180
l-32 -175 -493 -3 -493 -2 6 27 c6 27 59 335 91 528 17 99 60 350 99 575 14
80 30 177 36 215 6 39 15 94 21 123 l10 52 220 0 c120 0 219 -3 219 -6z m1633
-31 c-3 -21 -16 -96 -29 -167 -13 -71 -24 -132 -24 -137 0 -5 -80 -10 -177
-11 l-178 -3 -22 -125 c-12 -69 -36 -208 -53 -310 -18 -102 -45 -257 -60 -345
-15 -88 -36 -211 -46 -272 l-18 -113 -218 0 c-211 0 -218 1 -218 20 0 22 22
161 45 285 23 122 145 845 145 858 0 4 -82 7 -181 7 l-181 0 7 58 c6 50 34
202 50 270 l5 22 580 0 579 0 -6 -37z m697 34 c0 -2 -11 -59 -24 -128 -13 -68
-29 -160 -36 -204 -6 -44 -24 -152 -40 -240 -15 -88 -42 -241 -59 -340 -17
-99 -44 -256 -60 -350 -16 -93 -33 -189 -36 -212 l-7 -43 -224 0 -225 0 5 33
c3 17 21 124 41 237 19 113 49 282 65 375 16 94 45 265 65 380 20 116 45 264
56 330 12 66 23 130 26 143 l5 22 224 0 c123 0 224 -1 224 -3z m1010 -69 c6
-40 24 -140 40 -223 35 -183 77 -414 86 -474 l6 -44 29 74 c26 67 151 327 302
627 l57 112 240 0 240 0 4 -22 c3 -13 10 -246 15 -518 6 -272 14 -604 17 -737
l6 -243 -201 0 -201 0 -1 368 c-1 202 -1 414 1 472 l2 105 -238 -472 -239
-473 -133 0 c-98 0 -134 3 -136 13 -3 11 -37 173 -82 387 -8 41 -37 181 -63
310 -27 129 -51 228 -53 220 -3 -8 -10 -41 -16 -73 -10 -51 -41 -154 -213
-702 -22 -71 -42 -136 -45 -142 -5 -18 -424 -19 -424 -1 0 11 464 1417 489
1481 l11 27 244 0 244 0 12 -72z m2439 35 c10 -36 27 -108 86 -363 13 -58 40
-172 59 -255 19 -82 51 -222 71 -310 21 -88 48 -205 60 -260 23 -97 65 -286
65 -292 0 -2 -100 -2 -222 -1 l-222 3 -23 100 c-13 55 -28 119 -34 143 l-12
42 -288 0 -288 0 -66 -124 c-98 -186 -60 -167 -333 -164 l-232 3 111 205 c61
113 182 336 269 495 86 160 221 408 299 553 l143 262 273 0 274 0 10 -37z
m1504 13 c133 -37 248 -119 300 -214 60 -111 58 -296 -6 -421 -58 -114 -191
-213 -325 -242 -31 -7 -61 -16 -66 -20 -5 -4 75 -134 178 -289 103 -155 190
-288 193 -296 4 -12 -31 -14 -240 -14 l-245 0 -60 108 c-32 59 -103 187 -157
285 -62 112 -101 173 -106 165 -4 -7 -12 -49 -19 -93 -6 -44 -24 -152 -40
-240 -16 -88 -31 -173 -32 -190 l-3 -30 -217 -3 -218 -2 0 23 c0 14 13 96 30
183 16 88 32 182 35 209 4 28 17 106 30 175 13 69 26 145 30 170 6 44 31 189
95 550 17 96 30 183 30 194 0 18 14 18 378 13 304 -4 388 -8 435 -21z m3166
-8 c6 -18 17 -67 26 -108 8 -41 29 -131 45 -200 32 -136 70 -299 125 -540 43
-187 74 -322 115 -493 16 -71 30 -133 30 -138 0 -6 -88 -8 -222 -7 l-222 3
-29 120 c-15 66 -30 130 -33 143 l-4 22 -288 0 c-279 0 -288 -1 -300 -21 -7
-11 -29 -50 -49 -87 -19 -37 -49 -93 -66 -124 l-32 -58 -237 0 c-215 0 -237 2
-231 16 3 9 36 71 73 138 36 66 87 159 112 206 25 47 170 314 322 593 152 280
276 511 276 513 0 3 7 16 16 29 l16 25 273 0 273 0 11 -32z m-10109 -41 c0
-18 -2 -19 -10 -7 -13 20 -13 43 0 35 6 -3 10 -16 10 -28z m5760 -1 c0 -2 -7
-9 -15 -16 -12 -10 -15 -10 -15 4 0 9 7 16 15 16 8 0 15 -2 15 -4z m-134 -208
c-9 -12 -16 -19 -16 -15 0 11 24 47 28 42 2 -2 -3 -14 -12 -27z m-2916 -938
c-7 -21 -10 -44 -7 -51 3 -8 6 -2 6 13 1 15 6 30 12 34 7 4 9 0 5 -14 -4 -11
-2 -23 4 -27 5 -3 10 -12 10 -18 0 -7 -4 -6 -10 3 -8 12 -10 10 -10 -8 0 -13
4 -20 10 -17 6 3 10 3 11 -2 0 -4 2 -18 3 -30 1 -12 -1 -20 -6 -17 -4 3 -8 -6
-8 -20 0 -14 -3 -27 -7 -29 -5 -3 -7 15 -6 39 1 25 -3 44 -9 44 -6 0 -8 -10
-4 -24 4 -15 1 -28 -6 -32 -8 -5 -9 -2 -5 9 5 12 1 17 -12 17 -10 0 -21 9 -24
20 -7 25 -27 26 -27 1 0 -10 -6 -21 -13 -24 -10 -4 -13 2 -10 21 3 24 2 25 -7
7 -8 -16 -9 -13 -4 14 6 35 52 143 54 126 0 -12 20 16 20 30 0 6 -5 3 -11 -5
-8 -12 -9 -9 -4 10 3 14 7 34 9 45 1 11 6 34 11 50 8 28 10 25 28 -48 17 -67
18 -84 7 -117z m811 79 c-8 -58 -8 -85 -1 -89 8 -5 8 -23 2 -56 -8 -42 -10
-44 -11 -16 0 18 -5 31 -9 28 -4 -2 -6 11 -4 31 3 25 1 34 -7 29 -7 -4 -9 -16
-6 -26 7 -22 -6 -32 -25 -19 -13 8 -13 10 0 19 12 7 12 12 2 22 -9 9 -12 9
-12 0 0 -7 -4 -12 -9 -12 -5 0 1 20 12 45 11 24 25 41 30 38 6 -3 7 -1 4 5 -9
14 3 43 14 36 5 -3 6 2 3 10 -3 9 -1 16 5 16 6 0 11 8 11 17 0 9 3 14 6 10 3
-3 1 -43 -5 -88z m-2314 3 c1 -36 1 -36 -7 -8 -8 24 -6 46 3 46 1 0 3 -17 4
-38z m793 -10 c0 -5 -7 -9 -15 -9 -8 0 -15 4 -15 9 0 4 7 8 15 8 8 0 15 -4 15
-8z m1450 -134 c0 -4 -8 -8 -17 -7 -11 0 -13 3 -6 6 10 3 10 10 2 26 -10 21
-10 21 5 3 9 -11 16 -23 16 -28z m-1516 -66 c-8 -18 -17 -32 -19 -32 -6 0 8
45 18 58 17 22 18 7 1 -26z m1459 9 c3 -13 1 -18 -9 -14 -7 2 -10 11 -7 19 7
19 10 18 16 -5z m-1483 -5 c0 -2 -8 -10 -17 -17 -16 -13 -17 -12 -4 4 13 16
21 21 21 13z m1458 -61 c-3 -3 -9 2 -12 12 -6 14 -5 15 5 6 7 -7 10 -15 7 -18z
m-1500 -40 c-3 -3 -9 2 -12 12 -6 14 -5 15 5 6 7 -7 10 -15 7 -18z m718 -23
c1 -7 0 -8 -2 -3 -3 6 -12 7 -21 4 -11 -4 -14 -3 -9 6 9 14 29 10 32 -7z m-45
-35 c-10 -9 -11 -8 -5 6 3 10 9 15 12 12 3 -3 0 -11 -7 -18z m-2103 -1266 c78
-37 119 -78 148 -148 21 -49 15 -116 -25 -283 -27 -116 -42 -180 -122 -535
-43 -192 -56 -229 -102 -298 -85 -124 -217 -185 -419 -194 l-118 -6 -9 -36
c-5 -20 -25 -110 -46 -201 -21 -91 -47 -205 -59 -255 l-22 -90 -187 -3 c-153
-2 -187 0 -187 11 0 14 32 164 64 297 8 36 31 137 51 225 20 88 49 216 65 285
55 242 99 436 130 575 17 77 44 196 60 265 16 69 43 188 60 265 18 77 34 146
36 152 2 10 73 12 306 10 l303 -2 73 -34z m1222 34 c0 -3 -7 -34 -15 -68 -7
-34 -26 -115 -40 -179 l-26 -118 -231 -2 -230 -3 -35 -145 c-19 -80 -44 -189
-57 -242 l-24 -98 230 0 230 0 -7 -27 c-4 -16 -15 -66 -25 -113 -10 -47 -27
-118 -36 -157 l-18 -73 -227 0 -227 0 -31 -127 c-54 -223 -81 -344 -81 -359 0
-12 37 -14 225 -14 124 0 225 -3 225 -6 0 -8 -17 -81 -52 -226 l-31 -128 -419
0 c-360 0 -418 2 -418 15 0 8 11 58 24 112 23 95 54 230 115 498 42 182 107
461 136 585 14 58 41 175 60 260 20 85 50 214 66 285 17 72 37 159 45 195 8
36 19 82 25 103 l10 37 419 0 c231 0 420 -2 420 -5z m1015 -4 c3 -6 -1 -36 -9
-68 -8 -32 -27 -111 -42 -175 l-27 -118 -233 0 c-228 0 -234 0 -234 -20 0 -11
-14 -78 -31 -148 -16 -70 -41 -171 -53 -224 l-24 -98 230 0 230 0 -7 -27 c-4
-16 -15 -66 -25 -113 -10 -47 -27 -118 -36 -157 l-18 -73 -227 0 -227 0 -32
-132 c-17 -73 -43 -178 -56 -233 -13 -56 -24 -108 -24 -118 0 -16 19 -17 225
-17 124 0 225 -2 225 -4 0 -5 -54 -239 -72 -308 l-11 -48 -419 0 c-328 0 -418
3 -418 13 0 6 11 62 26 122 14 61 39 169 55 240 31 133 74 320 128 550 17 72
47 200 66 285 20 85 46 202 60 260 13 58 40 175 60 260 20 85 43 184 51 220 8
36 19 82 25 103 l10 37 414 0 c247 0 416 -4 420 -9z m767 -2 c129 -27 215 -97
244 -197 20 -66 19 -69 -55 -387 -17 -71 -49 -209 -71 -305 -22 -96 -51 -220
-64 -275 -14 -55 -41 -172 -61 -260 -65 -281 -85 -357 -111 -407 -56 -110
-166 -194 -300 -228 -68 -18 -111 -20 -366 -20 -271 0 -289 1 -284 18 12 41
57 228 86 357 17 77 44 196 60 265 17 69 45 193 65 275 19 83 51 220 70 305
20 85 49 212 65 283 17 70 43 184 59 255 66 283 74 317 78 325 7 12 526 8 585
-4z m1648 1 c132 -19 207 -68 251 -164 26 -56 24 -111 -8 -253 l-27 -123 -194
0 c-179 0 -193 1 -188 18 23 75 26 115 11 138 -36 55 -119 7 -136 -78 -13 -67
-10 -207 6 -273 7 -33 35 -107 60 -165 180 -408 188 -435 189 -605 0 -204 -40
-330 -137 -428 -61 -62 -172 -120 -263 -137 -93 -18 -294 -8 -369 18 -77 27
-134 87 -160 167 -19 63 -17 87 37 323 l21 92 189 0 c144 0 188 -3 188 -12 0
-7 -7 -44 -15 -83 -25 -119 -18 -145 40 -145 63 0 91 60 101 215 8 116 -2 152
-113 387 -129 276 -144 325 -150 489 -8 213 23 337 112 451 112 143 310 203
555 168z m834 -7 c-3 -20 -73 -321 -125 -543 -12 -47 -29 -125 -40 -175 -11
-49 -22 -98 -25 -107 -5 -17 5 -18 125 -18 118 0 131 2 131 18 0 9 15 82 34
162 19 80 51 217 72 305 20 88 48 207 63 263 l26 104 185 -1 c101 -1 185 -3
187 -5 3 -2 -32 -159 -81 -366 -20 -89 -67 -293 -111 -485 -20 -88 -50 -216
-66 -285 -15 -69 -45 -195 -64 -280 -32 -141 -60 -259 -116 -500 -11 -47 -24
-102 -30 -122 l-10 -38 -188 0 -188 0 23 103 c13 56 35 152 48 212 14 61 41
178 60 260 19 83 39 173 44 200 6 28 14 58 17 68 7 16 -3 17 -123 17 l-130 0
-6 -37 c-4 -21 -20 -96 -37 -168 -64 -278 -89 -385 -120 -517 l-33 -138 -188
0 c-213 0 -198 -8 -173 89 8 31 17 72 20 91 3 19 19 89 35 155 16 66 43 181
60 255 17 74 44 189 60 255 16 66 32 136 35 155 3 19 19 89 34 155 29 120 60
255 126 545 48 211 87 374 91 381 5 9 379 1 378 -8z m-6496 -22 c92 -42 152
-131 152 -228 0 -32 -12 -109 -27 -170 l-27 -113 -192 0 -192 0 14 53 c18 68
18 87 -3 109 -25 28 -67 23 -97 -12 -35 -43 -46 -89 -46 -206 0 -118 11 -156
117 -399 97 -220 122 -286 135 -353 13 -69 13 -241 -1 -335 -20 -138 -105
-264 -219 -325 -104 -55 -138 -63 -289 -69 -124 -5 -149 -3 -210 15 -89 28
-130 56 -168 116 -28 46 -30 56 -29 140 1 93 45 309 66 322 5 3 90 7 189 8
202 1 189 8 164 -84 -18 -67 -19 -122 -3 -138 30 -30 92 -7 122 45 13 23 27
120 27 193 1 93 -18 149 -129 386 -95 201 -118 267 -133 371 -13 89 -6 261 14
344 29 119 135 258 237 310 89 44 116 49 300 46 160 -2 180 -4 228 -26z m7964
-9 c98 -48 148 -123 148 -223 0 -29 -16 -120 -35 -203 -20 -83 -49 -208 -65
-278 -17 -71 -43 -186 -60 -258 -45 -193 -85 -367 -124 -535 -19 -82 -38 -166
-41 -185 -4 -19 -23 -68 -42 -108 -42 -85 -105 -147 -196 -192 -104 -50 -173
-62 -321 -58 -152 5 -227 26 -283 79 -44 42 -83 122 -83 171 0 43 26 180 70
363 17 72 42 177 56 235 13 58 27 116 29 130 2 14 18 82 35 153 32 135 78 333
106 457 33 147 63 225 113 296 52 74 88 107 161 144 87 45 116 50 295 47 170
-2 171 -2 237 -35z m1071 18 c68 -26 129 -78 156 -133 34 -71 28 -141 -38
-417 -16 -69 -44 -190 -61 -270 -80 -363 -97 -412 -175 -498 -87 -97 -238
-152 -415 -152 l-79 0 -14 -47 c-8 -27 -22 -84 -32 -128 -9 -44 -30 -134 -45
-200 -16 -66 -33 -140 -37 -165 l-9 -45 -191 -3 c-178 -2 -191 -1 -188 15 2
10 17 77 34 148 16 72 44 193 61 270 17 77 47 210 66 295 64 281 158 693 194
850 47 207 98 433 105 468 l7 32 303 0 c280 0 309 -2 358 -20z"/>
<path d="M11592 7737 c-12 -27 -22 -51 -22 -54 0 -2 -45 -94 -100 -203 -54
-108 -96 -200 -93 -204 4 -3 80 -6 170 -6 184 0 173 -6 154 83 -11 47 -66 318
-79 387 l-9 45 -21 -48z m-12 -337 c0 -5 -5 -10 -11 -10 -5 0 -7 5 -4 10 3 6
8 10 11 10 2 0 4 -4 4 -10z"/>
<path d="M13031 7862 c-6 -11 -11 -31 -11 -44 0 -13 -13 -93 -29 -178 -16 -85
-27 -159 -24 -164 9 -14 212 0 266 19 91 32 138 101 136 200 -2 121 -63 166
-245 181 -76 6 -83 5 -93 -14z"/>
<path d="M16259 7730 c-12 -30 -67 -144 -121 -253 -54 -109 -98 -199 -98 -202
0 -6 335 -6 342 0 3 3 -3 41 -13 85 -10 44 -32 149 -48 232 -17 84 -32 162
-34 173 -3 15 -10 5 -28 -35z"/>
<path d="M9212 6990 c0 -14 2 -19 5 -12 2 6 2 18 0 25 -3 6 -5 1 -5 -13z"/>
<path d="M9187 6972 c3 -12 0 -29 -7 -37 -12 -14 -6 -35 10 -35 5 0 7 7 4 15
-4 8 -1 21 5 28 8 10 7 19 -4 33 -13 18 -14 18 -8 -4z"/>
<path d="M9161 6954 c0 -11 3 -14 6 -6 3 7 2 16 -1 19 -3 4 -6 -2 -5 -13z"/>
<path d="M9136 6924 c-3 -9 -4 -19 -1 -22 3 -3 5 1 5 9 0 11 2 11 10 -1 5 -8
10 -10 10 -5 0 6 -4 16 -9 23 -6 11 -10 10 -15 -4z"/>
<path d="M9197 6873 c-4 -3 -7 -16 -6 -27 0 -19 1 -19 10 3 10 24 8 36 -4 24z"/>
<path d="M9977 6997 c-3 -9 -4 -24 -1 -32 6 -14 8 -13 20 2 15 21 18 37 5 29
-5 -4 -11 -1 -13 6 -3 8 -7 6 -11 -5z"/>
<path d="M6567 5063 c-3 -5 -13 -44 -21 -88 -9 -44 -30 -136 -46 -205 -64
-274 -89 -387 -95 -427 l-7 -43 45 0 c67 0 99 34 121 130 51 224 78 338 105
454 38 162 34 179 -46 184 -28 2 -53 -1 -56 -5z"/>
<path d="M9667 5063 c-4 -8 -42 -166 -98 -405 -16 -73 -45 -198 -64 -278 -18
-80 -48 -208 -65 -285 -18 -77 -45 -192 -60 -255 -16 -63 -26 -118 -23 -122
15 -26 123 4 141 40 9 17 40 145 107 437 20 88 49 217 65 288 134 575 126 532
106 562 -13 20 -24 25 -61 25 -24 0 -46 -3 -48 -7z"/>
<path d="M13533 5046 c-39 -32 -32 -11 -148 -516 -61 -270 -96 -421 -131 -566
-49 -204 -47 -244 16 -244 55 0 82 37 108 147 47 204 83 360 87 383 2 14 18
81 34 150 16 69 43 186 60 260 17 74 42 184 56 243 30 130 30 122 5 147 -27
27 -52 25 -87 -4z"/>
<path d="M14607 5043 c-4 -16 -24 -107 -46 -203 -22 -96 -58 -256 -80 -354
-23 -99 -41 -181 -41 -183 0 -2 21 -3 48 -3 61 0 107 38 117 96 6 37 34 159
105 457 46 196 42 217 -44 217 -50 0 -54 -2 -59 -27z"/>
<path d="M12590 8751 c8 -6 18 -7 22 -5 4 3 8 -15 8 -40 0 -25 5 -46 10 -46 6
0 10 18 10 40 l0 40 40 0 c22 0 40 5 40 10 0 6 -31 10 -72 10 -48 0 -68 -3
-58 -9z"/>
<path d="M12455 8510 c-3 -5 1 -10 9 -10 9 0 16 5 16 10 0 6 -4 10 -9 10 -6 0
-13 -4 -16 -10z"/>
<path d="M12380 8380 c0 -22 5 -40 10 -40 6 0 10 18 10 40 0 22 -4 40 -10 40
-5 0 -10 -18 -10 -40z"/>
<path d="M6480 8350 c0 -5 7 -10 16 -10 8 0 12 5 9 10 -3 6 -10 10 -16 10 -5
0 -9 -4 -9 -10z"/>
<path d="M12066 8247 c3 -10 9 -15 12 -12 3 3 0 11 -7 18 -10 9 -11 8 -5 -6z"/>
<path d="M12215 8190 c-3 -5 1 -10 9 -10 9 0 16 5 16 10 0 6 -4 10 -9 10 -6 0
-13 -4 -16 -10z"/>
<path d="M12117 8133 c-16 -15 -6 -33 18 -33 29 0 31 6 11 26 -16 16 -20 17
-29 7z"/>
<path d="M11065 7829 c-4 -6 -5 -12 -2 -15 2 -3 7 2 10 11 7 17 1 20 -8 4z"/>
<path d="M7466 7525 c-9 -26 -7 -32 5 -12 6 10 9 21 6 23 -2 3 -7 -2 -11 -11z"/>
<path d="M7491 7514 c0 -11 3 -14 6 -6 3 7 2 16 -1 19 -3 4 -6 -2 -5 -13z"/>
<path d="M7506 7485 c-9 -26 -7 -32 5 -12 6 10 9 21 6 23 -2 3 -7 -2 -11 -11z"/>
<path d="M7700 7276 c0 -64 36 -79 38 -16 2 34 -1 40 -18 40 -14 0 -20 -7 -20
-24z"/>
<path d="M10741 7254 c0 -11 3 -14 6 -6 3 7 2 16 -1 19 -3 4 -6 -2 -5 -13z"/>
<path d="M8526 7127 c3 -10 9 -15 12 -12 3 3 0 11 -7 18 -10 9 -11 8 -5 -6z"/>
<path d="M8420 6990 c0 -5 5 -10 10 -10 6 0 10 5 10 10 0 6 -4 10 -10 10 -5 0
-10 -4 -10 -10z"/>
</g>
</svg>
